<svg width="28" height="20" viewBox="0 0 28 20" fill="none" xmlns="http://www.w3.org/2000/svg">
<path d="M4.125 8.375C4.86979 8.375 5.51432 8.10286 6.05859 7.55859C6.60286 7.01432 6.875 6.36979 6.875 5.625C6.875 4.88021 6.60286 4.23568 6.05859 3.69141C5.51432 3.14714 4.86979 2.875 4.125 2.875C3.38021 2.875 2.73568 3.14714 2.19141 3.69141C1.64714 4.23568 1.375 4.88021 1.375 5.625C1.375 6.36979 1.64714 7.01432 2.19141 7.55859C2.73568 8.10286 3.38021 8.375 4.125 8.375ZM23.375 8.375C24.1198 8.375 24.7643 8.10286 25.3086 7.55859C25.8529 7.01432 26.125 6.36979 26.125 5.625C26.125 4.88021 25.8529 4.23568 25.3086 3.69141C24.7643 3.14714 24.1198 2.875 23.375 2.875C22.6302 2.875 21.9857 3.14714 21.4414 3.69141C20.8971 4.23568 20.625 4.88021 20.625 5.625C20.625 6.36979 20.8971 7.01432 21.4414 7.55859C21.9857 8.10286 22.6302 8.375 23.375 8.375ZM24.75 9.75H22C21.2552 9.75 20.6107 10.0221 20.0664 10.5664C20.9258 11.0247 21.6419 11.6693 22.2148 12.5C22.7878 13.3307 23.1458 14.2474 23.2891 15.25H26.125C26.4974 15.25 26.8125 15.1211 27.0703 14.8633C27.3568 14.5768 27.5 14.2474 27.5 13.875V12.5C27.5 11.7552 27.2279 11.1107 26.6836 10.5664C26.1393 10.0221 25.4948 9.75 24.75 9.75ZM13.75 9.75C14.6094 9.75 15.4115 9.53516 16.1562 9.10547C16.901 8.67578 17.4883 8.08854 17.918 7.34375C18.3477 6.59896 18.5625 5.79688 18.5625 4.9375C18.5625 4.07812 18.3477 3.27604 17.918 2.53125C17.4883 1.78646 16.901 1.19922 16.1562 0.769531C15.4115 0.339844 14.6094 0.125 13.75 0.125C12.8906 0.125 12.0885 0.339844 11.3438 0.769531C10.599 1.19922 10.0117 1.78646 9.58203 2.53125C9.15234 3.27604 8.9375 4.07812 8.9375 4.9375C8.9375 5.79688 9.15234 6.59896 9.58203 7.34375C10.0117 8.08854 10.599 8.67578 11.3438 9.10547C12.0885 9.53516 12.8906 9.75 13.75 9.75ZM17.0586 11.125H16.7148C15.7409 11.5833 14.7526 11.8125 13.75 11.8125C12.7474 11.8125 11.7591 11.5833 10.7852 11.125H10.4414C9.55339 11.125 8.72266 11.3542 7.94922 11.8125C7.20443 12.2422 6.60286 12.8438 6.14453 13.6172C5.71484 14.362 5.5 15.1784 5.5 16.0664V17.3125C5.5 17.8854 5.70052 18.3724 6.10156 18.7734C6.5026 19.1745 6.98958 19.375 7.5625 19.375H19.9375C20.5104 19.375 20.9974 19.1745 21.3984 18.7734C21.7995 18.3724 22 17.8854 22 17.3125V16.0664C22 15.1784 21.7708 14.362 21.3125 13.6172C20.8828 12.8438 20.2812 12.2422 19.5078 11.8125C18.763 11.3542 17.9466 11.125 17.0586 11.125ZM7.43359 10.5664C6.88932 10.0221 6.24479 9.75 5.5 9.75H2.75C2.00521 9.75 1.36068 10.0221 0.816406 10.5664C0.272135 11.1107 0 11.7552 0 12.5V13.875C0 14.2474 0.128906 14.5768 0.386719 14.8633C0.673177 15.1211 1.0026 15.25 1.375 15.25H4.21094C4.35417 14.2474 4.71224 13.3307 5.28516 12.5C5.85807 11.6693 6.57422 11.0247 7.43359 10.5664Z" fill="black"/>
</svg>
