<svg width="20" height="23" viewBox="0 0 20 23" fill="none" xmlns="http://www.w3.org/2000/svg">
<path d="M6.35938 13.125H4.64062C4.4974 13.125 4.36849 13.082 4.25391 12.9961C4.16797 12.8815 4.125 12.7526 4.125 12.6094V10.8906C4.125 10.7474 4.16797 10.6328 4.25391 10.5469C4.36849 10.4323 4.4974 10.375 4.64062 10.375H6.35938C6.5026 10.375 6.61719 10.4323 6.70312 10.5469C6.81771 10.6328 6.875 10.7474 6.875 10.8906V12.6094C6.875 12.7526 6.81771 12.8815 6.70312 12.9961C6.61719 13.082 6.5026 13.125 6.35938 13.125ZM11 12.6094V10.8906C11 10.7474 10.9427 10.6328 10.8281 10.5469C10.7422 10.4323 10.6276 10.375 10.4844 10.375H8.76562C8.6224 10.375 8.49349 10.4323 8.37891 10.5469C8.29297 10.6328 8.25 10.7474 8.25 10.8906V12.6094C8.25 12.7526 8.29297 12.8815 8.37891 12.9961C8.49349 13.082 8.6224 13.125 8.76562 13.125H10.4844C10.6276 13.125 10.7422 13.082 10.8281 12.9961C10.9427 12.8815 11 12.7526 11 12.6094ZM15.125 12.6094V10.8906C15.125 10.7474 15.0677 10.6328 14.9531 10.5469C14.8672 10.4323 14.7526 10.375 14.6094 10.375H12.8906C12.7474 10.375 12.6185 10.4323 12.5039 10.5469C12.418 10.6328 12.375 10.7474 12.375 10.8906V12.6094C12.375 12.7526 12.418 12.8815 12.5039 12.9961C12.6185 13.082 12.7474 13.125 12.8906 13.125H14.6094C14.7526 13.125 14.8672 13.082 14.9531 12.9961C15.0677 12.8815 15.125 12.7526 15.125 12.6094ZM11 16.7344V15.0156C11 14.8724 10.9427 14.7578 10.8281 14.6719C10.7422 14.5573 10.6276 14.5 10.4844 14.5H8.76562C8.6224 14.5 8.49349 14.5573 8.37891 14.6719C8.29297 14.7578 8.25 14.8724 8.25 15.0156V16.7344C8.25 16.8776 8.29297 17.0065 8.37891 17.1211C8.49349 17.207 8.6224 17.25 8.76562 17.25H10.4844C10.6276 17.25 10.7422 17.207 10.8281 17.1211C10.9427 17.0065 11 16.8776 11 16.7344ZM6.875 16.7344V15.0156C6.875 14.8724 6.81771 14.7578 6.70312 14.6719C6.61719 14.5573 6.5026 14.5 6.35938 14.5H4.64062C4.4974 14.5 4.36849 14.5573 4.25391 14.6719C4.16797 14.7578 4.125 14.8724 4.125 15.0156V16.7344C4.125 16.8776 4.16797 17.0065 4.25391 17.1211C4.36849 17.207 4.4974 17.25 4.64062 17.25H6.35938C6.5026 17.25 6.61719 17.207 6.70312 17.1211C6.81771 17.0065 6.875 16.8776 6.875 16.7344ZM15.125 16.7344V15.0156C15.125 14.8724 15.0677 14.7578 14.9531 14.6719C14.8672 14.5573 14.7526 14.5 14.6094 14.5H12.8906C12.7474 14.5 12.6185 14.5573 12.5039 14.6719C12.418 14.7578 12.375 14.8724 12.375 15.0156V16.7344C12.375 16.8776 12.418 17.0065 12.5039 17.1211C12.6185 17.207 12.7474 17.25 12.8906 17.25H14.6094C14.7526 17.25 14.8672 17.207 14.9531 17.1211C15.0677 17.0065 15.125 16.8776 15.125 16.7344ZM19.25 5.5625V20.6875C19.25 21.2604 19.0495 21.7474 18.6484 22.1484C18.2474 22.5495 17.7604 22.75 17.1875 22.75H2.0625C1.48958 22.75 1.0026 22.5495 0.601562 22.1484C0.200521 21.7474 0 21.2604 0 20.6875V5.5625C0 4.98958 0.200521 4.5026 0.601562 4.10156C1.0026 3.70052 1.48958 3.5 2.0625 3.5H4.125V1.26562C4.125 1.1224 4.16797 1.00781 4.25391 0.921875C4.36849 0.807292 4.4974 0.75 4.64062 0.75H6.35938C6.5026 0.75 6.61719 0.807292 6.70312 0.921875C6.81771 1.00781 6.875 1.1224 6.875 1.26562V3.5H12.375V1.26562C12.375 1.1224 12.418 1.00781 12.5039 0.921875C12.6185 0.807292 12.7474 0.75 12.8906 0.75H14.6094C14.7526 0.75 14.8672 0.807292 14.9531 0.921875C15.0677 1.00781 15.125 1.1224 15.125 1.26562V3.5H17.1875C17.7604 3.5 18.2474 3.70052 18.6484 4.10156C19.0495 4.5026 19.25 4.98958 19.25 5.5625ZM17.1875 20.4297V7.625H2.0625V20.4297C2.0625 20.487 2.09115 20.5443 2.14844 20.6016C2.20573 20.6589 2.26302 20.6875 2.32031 20.6875H16.9297C16.987 20.6875 17.0443 20.6589 17.1016 20.6016C17.1589 20.5443 17.1875 20.487 17.1875 20.4297Z" fill="black"/>
</svg>
