<svg width="30" height="30" viewBox="0 0 30 30" fill="none" xmlns="http://www.w3.org/2000/svg">
<path d="M15 0.46875C6.97266 0.46875 0.46875 6.97266 0.46875 15C0.46875 23.0273 6.97266 29.5312 15 29.5312C23.0273 29.5312 29.5312 23.0273 29.5312 15C29.5312 6.97266 23.0273 0.46875 15 0.46875ZM15 26.7188C8.52539 26.7188 3.28125 21.4746 3.28125 15C3.28125 8.52539 8.52539 3.28125 15 3.28125C21.4746 3.28125 26.7188 8.52539 26.7188 15C26.7188 21.4746 21.4746 26.7188 15 26.7188ZM20.9648 11.3555L17.3203 15L20.9648 18.6445C21.2402 18.9199 21.2402 19.3652 20.9648 19.6406L19.6406 20.9648C19.3652 21.2402 18.9199 21.2402 18.6445 20.9648L15 17.3203L11.3555 20.9648C11.0801 21.2402 10.6348 21.2402 10.3594 20.9648L9.03516 19.6406C8.75977 19.3652 8.75977 18.9199 9.03516 18.6445L12.6797 15L9.03516 11.3555C8.75977 11.0801 8.75977 10.6348 9.03516 10.3594L10.3594 9.03516C10.6348 8.75977 11.0801 8.75977 11.3555 9.03516L15 12.6797L18.6445 9.03516C18.9199 8.75977 19.3652 8.75977 19.6406 9.03516L20.9648 10.3594C21.2402 10.6348 21.2402 11.0801 20.9648 11.3555V11.3555Z" fill="#5324B5"/>
</svg>
