<svg width="18" height="20" viewBox="0 0 18 20" fill="none" xmlns="http://www.w3.org/2000/svg">
<path d="M3.42188 19.3125L3.42188 1.4375C3.42188 1.23698 3.36458 1.07943 3.25 0.964844C3.10677 0.821615 2.9349 0.75 2.73438 0.75H1.01563C0.815104 0.75 0.657552 0.821615 0.542969 0.964844C0.39974 1.07943 0.328125 1.23698 0.328125 1.4375L0.328125 19.3125C0.328125 19.513 0.39974 19.6849 0.542969 19.8281C0.657552 19.9427 0.815104 20 1.01562 20H2.73438C2.9349 20 3.10677 19.9427 3.25 19.8281C3.36458 19.6849 3.42188 19.513 3.42188 19.3125ZM10.2969 19.3125L10.2969 1.4375C10.2969 1.23698 10.2396 1.07943 10.125 0.964844C9.98177 0.821615 9.8099 0.75 9.60938 0.75H7.89063C7.6901 0.75 7.53255 0.821615 7.41797 0.964844C7.27474 1.07943 7.20313 1.23698 7.20313 1.4375L7.20312 19.3125C7.20312 19.513 7.27474 19.6849 7.41797 19.8281C7.53255 19.9427 7.6901 20 7.89062 20H9.60938C9.8099 20 9.98177 19.9427 10.125 19.8281C10.2396 19.6849 10.2969 19.513 10.2969 19.3125ZM17.1719 19.3125V1.4375C17.1719 1.23698 17.1146 1.07943 17 0.964844C16.8568 0.821615 16.6849 0.75 16.4844 0.75H14.7656C14.5651 0.75 14.4076 0.821615 14.293 0.964844C14.1497 1.07943 14.0781 1.23698 14.0781 1.4375V19.3125C14.0781 19.513 14.1497 19.6849 14.293 19.8281C14.4076 19.9427 14.5651 20 14.7656 20H16.4844C16.6849 20 16.8568 19.9427 17 19.8281C17.1146 19.6849 17.1719 19.513 17.1719 19.3125Z" fill="#5324B5"/>
</svg>
