<svg xmlns="http://www.w3.org/2000/svg" width="30" height="30" fill="none"><mask id="a" width="30" height="30" x="0" y="0" maskUnits="userSpaceOnUse"><circle cx="15" cy="15" r="15" fill="#fff"/></mask><g mask="url(#a)"><circle cx="15" cy="15" r="15" fill="#B9D3E1"/><path fill="#F1C9A5" d="M26.6 27.8C25 25 15.3 23.2 15.3 23.2S5.6 25 4.1 27.8c-1.2 4-2.1 9-2.1 9h26.6s-.6-5.4-2-9z"/><path fill="#E4B692" d="M15.3 23.2S25 25 26.6 27.8c1.4 3.6 2 9 2 9H15.3V23.3z"/><path fill="#F1C9A5" d="M18 17.3h-5.3v9H18v-9z"/><path fill="#E4B692" d="M18 17.3h-2.7v9H18v-9z"/><path fill="#DDAC8C" d="M12.7 21.4c.4 1.4 2.4 2.2 3.8 2.2.5 0 1 0 1.5-.2v-6h-5.3v4z" opacity=".1"/><path fill="#F1C9A5" d="M22.1 11.7c0-5.5-3-8.7-6.8-8.7s-6.8 3.2-6.8 8.7c0 7.5 3 10 6.8 10s6.8-2.8 6.8-10z"/><path fill="#E4B692" d="M21 15.6c-1.1-.2-2-1.5-1.8-3 .2-1.5 1.4-2.6 2.6-2.5 1.3.1 2.1 1.5 1.9 3-.2 1.5-1.4 2.6-2.6 2.5z"/><path fill="#F1C9A5" d="M7 13c-.2-1.4.6-2.8 1.8-2.9 1.3-.1 2.4 1 2.6 2.5.2 1.5-.6 2.8-1.8 3-1.3.1-2.4-1-2.6-2.5z"/><path fill="#E4B692" d="M22.1 11.7c0-5.5-3-8.7-6.8-8.7v18.8c3.8 0 6.8-3 6.8-10z"/><path fill="#303030" d="M21.4 16.4c-.3 1-1 2.3-2 2.3-1.5 0-2.5-1.2-4-1.2h-.1c-1.6 0-2.6 1.2-4 1.2-1.1 0-1.8-1.3-2.1-2.3l-.3-2v2.4s.5 2.8 1.5 3.4c.8.8 3.6 2 4.9 2 1.4 0 4-1.2 4.9-2 1-.6 1.6-3.4 1.6-3.4v-2.4l-.4 2zM12 4.1s1.3 5.1 8.3 7.7c-.6-1.1-.8-2.5-.8-2.5s1.2 1.2 3 2.2c1-2 2.3-5.2-.4-6.9C19.4 3 12.9 0 12 4.1z"/><path fill="#303030" d="M9.7 11.4s.5-5.9 2.7-7.1C10.5 3.4 7.7 5.9 8 7.4c.3 1.5 1.7 4 1.7 4z"/><path fill="#FB621E" d="M26.6 27.8c-1-1.6-4.6-3-7.5-3.8a3.8 3.8 0 0 1-7.6 0c-2.9.8-6.6 2.2-7.4 3.8-1.2 4-2.1 9-2.1 9h26.6s-.6-5.4-2-9z"/><path fill="#E53D0C" d="M11.3 25c.1 2 1.9 3.6 4 3.6s3.9-1.6 4-3.6c2.7.7 6 1.8 7.4 3.2l-.1-.4c-1-1.6-4.6-3-7.5-3.8a3.8 3.8 0 0 1-7.6 0c-2.9.8-6.6 2.2-7.4 3.8l-.1.3a20 20 0 0 1 7.3-3z" opacity=".2"/><path fill="#E53D0C" d="M10.4 24.4a5 5 0 0 0 9.8 0A43 43 0 0 0 19 24a3.8 3.8 0 0 1-7.6 0l-1 .4z"/><path fill="#fff" d="M16.4 19.3s-.1-.7-1-.7c-1 0-1.2.7-1.2.7h2.2z"/></g></svg>