<svg width="20" height="18" viewBox="0 0 20 18" fill="none" xmlns="http://www.w3.org/2000/svg">
<path d="M0.6875 3.42188H18.5625C18.763 3.42188 18.9206 3.36458 19.0352 3.25C19.1784 3.10677 19.25 2.9349 19.25 2.73438V1.01562C19.25 0.815104 19.1784 0.657552 19.0352 0.542969C18.9206 0.39974 18.763 0.328125 18.5625 0.328125H0.6875C0.486979 0.328125 0.315104 0.39974 0.171875 0.542969C0.0572917 0.657552 0 0.815104 0 1.01562V2.73438C0 2.9349 0.0572917 3.10677 0.171875 3.25C0.315104 3.36458 0.486979 3.42188 0.6875 3.42188ZM0.6875 10.2969H18.5625C18.763 10.2969 18.9206 10.2396 19.0352 10.125C19.1784 9.98177 19.25 9.8099 19.25 9.60938V7.89062C19.25 7.6901 19.1784 7.53255 19.0352 7.41797C18.9206 7.27474 18.763 7.20312 18.5625 7.20312H0.6875C0.486979 7.20312 0.315104 7.27474 0.171875 7.41797C0.0572917 7.53255 0 7.6901 0 7.89062V9.60938C0 9.8099 0.0572917 9.98177 0.171875 10.125C0.315104 10.2396 0.486979 10.2969 0.6875 10.2969ZM0.6875 17.1719H18.5625C18.763 17.1719 18.9206 17.1146 19.0352 17C19.1784 16.8568 19.25 16.6849 19.25 16.4844V14.7656C19.25 14.5651 19.1784 14.4076 19.0352 14.293C18.9206 14.1497 18.763 14.0781 18.5625 14.0781H0.6875C0.486979 14.0781 0.315104 14.1497 0.171875 14.293C0.0572917 14.4076 0 14.5651 0 14.7656V16.4844C0 16.6849 0.0572917 16.8568 0.171875 17C0.315104 17.1146 0.486979 17.1719 0.6875 17.1719Z" fill="#5324B5"/>
</svg>
