<svg width="156" height="23" viewBox="0 0 156 23" fill="none" xmlns="http://www.w3.org/2000/svg">
<path d="M8.608 10.224C9.408 10.3733 10.016 10.688 10.432 11.168C10.8587 11.648 11.072 12.272 11.072 13.04C11.072 13.9893 10.7253 14.72 10.032 15.232C9.33867 15.744 8.30933 16 6.944 16H1.952V4.8H6.624C7.84 4.8 8.784 5.05067 9.456 5.552C10.1387 6.04267 10.48 6.74667 10.48 7.664C10.48 8.304 10.3093 8.84267 9.968 9.28C9.63733 9.71733 9.184 10.032 8.608 10.224ZM2.768 5.504V9.968H6.592C7.57333 9.968 8.32533 9.78133 8.848 9.408C9.38133 9.024 9.648 8.464 9.648 7.728C9.648 7.00267 9.38133 6.45333 8.848 6.08C8.32533 5.696 7.57333 5.504 6.592 5.504H2.768ZM6.944 15.296C8.032 15.296 8.85333 15.1093 9.408 14.736C9.97333 14.352 10.256 13.7653 10.256 12.976C10.256 12.1867 9.97333 11.6053 9.408 11.232C8.85333 10.8587 8.032 10.672 6.944 10.672H2.768V15.296H6.944ZM18.3673 16.08C16.9486 16.08 15.8446 15.6693 15.0553 14.848C14.2766 14.0267 13.8873 12.8267 13.8873 11.248V4.8H14.7033V11.216C14.7033 12.592 15.0179 13.6213 15.6473 14.304C16.2766 14.9867 17.1886 15.328 18.3833 15.328C19.5673 15.328 20.4739 14.9867 21.1033 14.304C21.7326 13.6213 22.0473 12.592 22.0473 11.216V4.8H22.8633V11.248C22.8633 12.8267 22.4686 14.0267 21.6793 14.848C20.8899 15.6693 19.7859 16.08 18.3673 16.08ZM27.4868 5.536V10.32H33.4548V11.056H27.4868V16H26.6708V4.8H34.1588V5.536H27.4868ZM37.5805 5.536V10.32H43.5485V11.056H37.5805V16H36.7645V4.8H44.2525V5.536H37.5805ZM54.5863 15.264V16H46.8583V4.8H54.3463V5.536H47.6743V9.952H53.6423V10.672H47.6743V15.264H54.5863ZM57.5614 4.8H58.3774V15.264H64.8254V16H57.5614V4.8ZM78.9021 16.16L77.2861 14.464C76.8275 14.9973 76.2835 15.4027 75.6541 15.68C75.0248 15.9467 74.3261 16.08 73.5581 16.08C72.8541 16.08 72.2248 15.9627 71.6701 15.728C71.1155 15.4933 70.6835 15.1627 70.3741 14.736C70.0648 14.3093 69.9101 13.824 69.9101 13.28C69.9101 12.6293 70.1288 12.0373 70.5661 11.504C71.0035 10.96 71.7501 10.3787 72.8061 9.76L72.7901 9.728C72.2355 9.152 71.8568 8.672 71.6541 8.288C71.4515 7.89333 71.3501 7.472 71.3501 7.024C71.3501 6.33067 71.5901 5.776 72.0701 5.36C72.5501 4.944 73.1955 4.736 74.0061 4.736C74.7635 4.736 75.3608 4.928 75.7981 5.312C76.2461 5.68533 76.4701 6.20267 76.4701 6.864C76.4701 7.41867 76.2781 7.92 75.8941 8.368C75.5208 8.80533 74.8595 9.30133 73.9101 9.856L77.2221 13.36C77.5848 12.72 77.8515 11.9627 78.0221 11.088L78.6781 11.296C78.4648 12.3307 78.1448 13.1893 77.7181 13.872L79.3821 15.632L78.9021 16.16ZM72.1021 7.024C72.1021 7.376 72.1928 7.71733 72.3741 8.048C72.5555 8.368 72.9128 8.81067 73.4461 9.376C74.3315 8.864 74.9395 8.432 75.2701 8.08C75.6008 7.71733 75.7661 7.31733 75.7661 6.88C75.7661 6.41067 75.6115 6.04267 75.3021 5.776C74.9928 5.49867 74.5608 5.36 74.0061 5.36C73.4088 5.36 72.9395 5.51467 72.5981 5.824C72.2675 6.12267 72.1021 6.52267 72.1021 7.024ZM73.5901 15.408C74.9555 15.408 76.0275 14.9227 76.8061 13.952L73.2701 10.224C72.2888 10.8 71.6115 11.3067 71.2381 11.744C70.8755 12.1813 70.6941 12.672 70.6941 13.216C70.6941 13.8667 70.9608 14.3947 71.4941 14.8C72.0381 15.2053 72.7368 15.408 73.5901 15.408ZM92.2799 10.224C93.0799 10.3733 93.6879 10.688 94.1039 11.168C94.5305 11.648 94.7439 12.272 94.7439 13.04C94.7439 13.9893 94.3972 14.72 93.7039 15.232C93.0105 15.744 91.9812 16 90.6159 16H85.6239V4.8H90.2959C91.5119 4.8 92.4559 5.05067 93.1279 5.552C93.8105 6.04267 94.1519 6.74667 94.1519 7.664C94.1519 8.304 93.9812 8.84267 93.6399 9.28C93.3092 9.71733 92.8559 10.032 92.2799 10.224ZM86.4399 5.504V9.968H90.2639C91.2452 9.968 91.9972 9.78133 92.5199 9.408C93.0532 9.024 93.3199 8.464 93.3199 7.728C93.3199 7.00267 93.0532 6.45333 92.5199 6.08C91.9972 5.696 91.2452 5.504 90.2639 5.504H86.4399ZM90.6159 15.296C91.7039 15.296 92.5252 15.1093 93.0799 14.736C93.6452 14.352 93.9279 13.7653 93.9279 12.976C93.9279 12.1867 93.6452 11.6053 93.0799 11.232C92.5252 10.8587 91.7039 10.672 90.6159 10.672H86.4399V15.296H90.6159ZM104.583 12.848H98.0871L96.6631 16H95.7831L100.935 4.8H101.751L106.903 16H106.023L104.583 12.848ZM104.279 12.16L101.335 5.696L98.4071 12.16H104.279ZM101.335 3.616C100.887 3.616 100.508 3.46667 100.199 3.168C99.9005 2.85867 99.7511 2.49067 99.7511 2.064C99.7511 1.62667 99.9005 1.25333 100.199 0.943999C100.508 0.623999 100.887 0.463999 101.335 0.463999C101.783 0.463999 102.162 0.623999 102.471 0.943999C102.78 1.25333 102.935 1.62667 102.935 2.064C102.935 2.49067 102.78 2.85867 102.471 3.168C102.172 3.46667 101.794 3.616 101.335 3.616ZM101.335 3.168C101.655 3.168 101.922 3.06133 102.135 2.848C102.348 2.63467 102.455 2.37333 102.455 2.064C102.455 1.744 102.348 1.47733 102.135 1.264C101.922 1.04 101.655 0.927999 101.335 0.927999C101.015 0.927999 100.748 1.04 100.535 1.264C100.332 1.47733 100.231 1.744 100.231 2.064C100.231 2.384 100.332 2.65067 100.535 2.864C100.748 3.06667 101.015 3.168 101.335 3.168ZM116.78 10.448H117.564V14.64C117.073 15.1093 116.476 15.4667 115.772 15.712C115.079 15.9573 114.343 16.08 113.564 16.08C112.455 16.08 111.452 15.8347 110.556 15.344C109.671 14.8533 108.972 14.176 108.46 13.312C107.959 12.448 107.708 11.4773 107.708 10.4C107.708 9.32267 107.959 8.352 108.46 7.488C108.972 6.624 109.671 5.94667 110.556 5.456C111.452 4.96533 112.46 4.72 113.58 4.72C114.401 4.72 115.153 4.85333 115.836 5.12C116.529 5.376 117.121 5.75467 117.612 6.256L117.1 6.8C116.631 6.33067 116.103 5.99467 115.516 5.792C114.94 5.57867 114.3 5.472 113.596 5.472C112.636 5.472 111.767 5.68533 110.988 6.112C110.22 6.53867 109.617 7.13067 109.18 7.888C108.743 8.63467 108.524 9.472 108.524 10.4C108.524 11.3173 108.743 12.1547 109.18 12.912C109.628 13.6587 110.236 14.2507 111.004 14.688C111.772 15.1147 112.636 15.328 113.596 15.328C114.876 15.328 115.937 14.9867 116.78 14.304V10.448Z" fill="black"/>
<path d="M135.438 5C135.438 9.17665 138.823 12.5625 143 12.5625C147.177 12.5625 150.563 9.17665 150.563 5" stroke="black"/>
<path d="M154 5.6875C154 11.7626 149.075 16.6875 143 16.6875C136.925 16.6875 132 11.7626 132 5.6875" stroke="#5324B5" stroke-width="3"/>
</svg>
