<svg width="22" height="19" viewBox="0 0 22 19" fill="none" xmlns="http://www.w3.org/2000/svg">
<path d="M4.125 2.875C4.125 3.44792 3.92448 3.9349 3.52344 4.33594C3.1224 4.73698 2.63542 4.9375 2.0625 4.9375C1.48958 4.9375 1.0026 4.73698 0.601562 4.33594C0.200521 3.9349 0 3.44792 0 2.875C0 2.30208 0.200521 1.8151 0.601562 1.41406C1.0026 1.01302 1.48958 0.8125 2.0625 0.8125C2.63542 0.8125 3.1224 1.01302 3.52344 1.41406C3.92448 1.8151 4.125 2.30208 4.125 2.875ZM2.0625 7.6875C1.48958 7.6875 1.0026 7.88802 0.601562 8.28906C0.200521 8.6901 0 9.17708 0 9.75C0 10.3229 0.200521 10.8099 0.601562 11.2109C1.0026 11.612 1.48958 11.8125 2.0625 11.8125C2.63542 11.8125 3.1224 11.612 3.52344 11.2109C3.92448 10.8099 4.125 10.3229 4.125 9.75C4.125 9.17708 3.92448 8.6901 3.52344 8.28906C3.1224 7.88802 2.63542 7.6875 2.0625 7.6875ZM2.0625 14.5625C1.48958 14.5625 1.0026 14.763 0.601562 15.1641C0.200521 15.5651 0 16.0521 0 16.625C0 17.1979 0.200521 17.6849 0.601562 18.0859C1.0026 18.487 1.48958 18.6875 2.0625 18.6875C2.63542 18.6875 3.1224 18.487 3.52344 18.0859C3.92448 17.6849 4.125 17.1979 4.125 16.625C4.125 16.0521 3.92448 15.5651 3.52344 15.1641C3.1224 14.763 2.63542 14.5625 2.0625 14.5625ZM6.1875 4.42188H21.3125C21.513 4.42188 21.6706 4.36458 21.7852 4.25C21.9284 4.10677 22 3.9349 22 3.73438V2.01562C22 1.8151 21.9284 1.65755 21.7852 1.54297C21.6706 1.39974 21.513 1.32812 21.3125 1.32812H6.1875C5.98698 1.32812 5.8151 1.39974 5.67188 1.54297C5.55729 1.65755 5.5 1.8151 5.5 2.01562V3.73438C5.5 3.9349 5.55729 4.10677 5.67188 4.25C5.8151 4.36458 5.98698 4.42188 6.1875 4.42188ZM6.1875 11.2969H21.3125C21.513 11.2969 21.6706 11.2396 21.7852 11.125C21.9284 10.9818 22 10.8099 22 10.6094V8.89062C22 8.6901 21.9284 8.53255 21.7852 8.41797C21.6706 8.27474 21.513 8.20312 21.3125 8.20312H6.1875C5.98698 8.20312 5.8151 8.27474 5.67188 8.41797C5.55729 8.53255 5.5 8.6901 5.5 8.89062V10.6094C5.5 10.8099 5.55729 10.9818 5.67188 11.125C5.8151 11.2396 5.98698 11.2969 6.1875 11.2969ZM6.1875 18.1719H21.3125C21.513 18.1719 21.6706 18.1146 21.7852 18C21.9284 17.8568 22 17.6849 22 17.4844V15.7656C22 15.5651 21.9284 15.4076 21.7852 15.293C21.6706 15.1497 21.513 15.0781 21.3125 15.0781H6.1875C5.98698 15.0781 5.8151 15.1497 5.67188 15.293C5.55729 15.4076 5.5 15.5651 5.5 15.7656V17.4844C5.5 17.6849 5.55729 17.8568 5.67188 18C5.8151 18.1146 5.98698 18.1719 6.1875 18.1719Z" fill="black"/>
</svg>
