<svg width="21" height="22" viewBox="0 0 21 22" fill="none" xmlns="http://www.w3.org/2000/svg">
<path d="M14.1429 9.35714C14.1429 12.3895 11.6752 14.8571 8.64286 14.8571C5.61049 14.8571 3.14286 12.3895 3.14286 9.35714C3.14286 6.32478 5.61049 3.85714 8.64286 3.85714C11.6752 3.85714 14.1429 6.32478 14.1429 9.35714ZM20.4286 19.5714C20.4286 19.154 20.2567 18.7489 19.9743 18.4665L15.7634 14.2556C16.7578 12.8192 17.2857 11.1004 17.2857 9.35714C17.2857 4.58147 13.4185 0.714285 8.64286 0.714285C3.86719 0.714285 0 4.58147 0 9.35714C0 14.1328 3.86719 18 8.64286 18C10.3862 18 12.1049 17.4721 13.5413 16.4777L17.7522 20.6763C18.0346 20.971 18.4397 21.1429 18.8571 21.1429C19.7165 21.1429 20.4286 20.4308 20.4286 19.5714Z" fill="black"/>
</svg>
